<mxfile host="app.diagrams.net" agent="Mozilla/5.0 (X11; Ubuntu; Linux x86_64; rv:132.0) Gecko/20100101 Firefox/132.0" version="25.0.0">
  <diagram name="Pagina-1" id="oMl4hfG4BsTxHnoN9xjV">
    <mxGraphModel dx="2502" dy="1382" grid="1" gridSize="10" guides="1" tooltips="1" connect="1" arrows="1" fold="1" page="1" pageScale="1" pageWidth="827" pageHeight="1169" math="0" shadow="0">
      <root>
        <mxCell id="0" />
        <mxCell id="1" parent="0" />
        <mxCell id="R8kbB7w93Nhl6awfQKIw-3" value="" style="group" vertex="1" connectable="0" parent="1">
          <mxGeometry x="80" y="200" width="120" height="60" as="geometry" />
        </mxCell>
        <mxCell id="R8kbB7w93Nhl6awfQKIw-1" value="" style="rounded=0;whiteSpace=wrap;html=1;" vertex="1" parent="R8kbB7w93Nhl6awfQKIw-3">
          <mxGeometry width="120" height="60" as="geometry" />
        </mxCell>
        <mxCell id="R8kbB7w93Nhl6awfQKIw-2" value="Client 1" style="text;html=1;align=center;verticalAlign=middle;whiteSpace=wrap;rounded=0;" vertex="1" parent="R8kbB7w93Nhl6awfQKIw-3">
          <mxGeometry x="30" y="15" width="60" height="30" as="geometry" />
        </mxCell>
        <mxCell id="R8kbB7w93Nhl6awfQKIw-4" value="" style="group" vertex="1" connectable="0" parent="1">
          <mxGeometry x="80" y="280" width="120" height="60" as="geometry" />
        </mxCell>
        <mxCell id="R8kbB7w93Nhl6awfQKIw-5" value="" style="rounded=0;whiteSpace=wrap;html=1;" vertex="1" parent="R8kbB7w93Nhl6awfQKIw-4">
          <mxGeometry width="120" height="60" as="geometry" />
        </mxCell>
        <mxCell id="R8kbB7w93Nhl6awfQKIw-6" value="Client 2" style="text;html=1;align=center;verticalAlign=middle;whiteSpace=wrap;rounded=0;" vertex="1" parent="R8kbB7w93Nhl6awfQKIw-4">
          <mxGeometry x="30" y="15" width="60" height="30" as="geometry" />
        </mxCell>
        <mxCell id="R8kbB7w93Nhl6awfQKIw-8" value="" style="group" vertex="1" connectable="0" parent="1">
          <mxGeometry x="80" y="420" width="120" height="60" as="geometry" />
        </mxCell>
        <mxCell id="R8kbB7w93Nhl6awfQKIw-9" value="" style="rounded=0;whiteSpace=wrap;html=1;" vertex="1" parent="R8kbB7w93Nhl6awfQKIw-8">
          <mxGeometry width="120" height="60" as="geometry" />
        </mxCell>
        <mxCell id="R8kbB7w93Nhl6awfQKIw-10" value="Client N" style="text;html=1;align=center;verticalAlign=middle;whiteSpace=wrap;rounded=0;" vertex="1" parent="R8kbB7w93Nhl6awfQKIw-8">
          <mxGeometry x="30" y="15" width="60" height="30" as="geometry" />
        </mxCell>
        <mxCell id="R8kbB7w93Nhl6awfQKIw-11" value="" style="endArrow=none;dashed=1;html=1;dashPattern=1 3;strokeWidth=2;rounded=0;" edge="1" parent="1">
          <mxGeometry width="50" height="50" relative="1" as="geometry">
            <mxPoint x="140" y="410" as="sourcePoint" />
            <mxPoint x="140" y="350" as="targetPoint" />
          </mxGeometry>
        </mxCell>
        <mxCell id="R8kbB7w93Nhl6awfQKIw-13" value="" style="rounded=0;whiteSpace=wrap;html=1;" vertex="1" parent="1">
          <mxGeometry x="240" y="40" width="1160" height="600" as="geometry" />
        </mxCell>
        <mxCell id="R8kbB7w93Nhl6awfQKIw-15" value="&lt;h1 style=&quot;margin-top: 0px;&quot;&gt;Heading&lt;/h1&gt;&lt;p&gt;Lorem ipsum dolor sit amet, consectetur adipisicing elit, sed do eiusmod tempor incididunt ut labore et dolore magna aliqua.&lt;/p&gt;" style="text;html=1;whiteSpace=wrap;overflow=hidden;rounded=0;" vertex="1" parent="1">
          <mxGeometry x="240" y="40" width="350" height="90" as="geometry" />
        </mxCell>
      </root>
    </mxGraphModel>
  </diagram>
</mxfile>
